<?xml version="1.0" encoding="UTF-8"?>
<svg enable-background="new 0 0 820.4 493.5" version="1.1" viewBox="0 0 820.4 493.5" xml:space="preserve" xmlns="http://www.w3.org/2000/svg">
<style type="text/css">
	.st0{fill:#DDF1FD;enable-background:new    ;}
	.st1{opacity:0.18;fill:#1D2741;enable-background:new    ;}
	.st2{fill:url(#r);}
	.st3{fill:#3F3D56;}
	.st4{fill:#00B1EB;}
	.st5{fill:url(#h);}
	.st6{fill:url(#g);}
	.st7{fill:url(#f);}
	.st8{fill:url(#e);}
	.st9{fill:url(#d);}
	.st10{fill:url(#c);}
	.st11{fill:url(#b);}
	.st12{fill:url(#a);}
	.st13{fill:url(#ab);}
	.st14{fill:url(#aa);}
	.st15{fill:url(#z);}
	.st16{fill:url(#y);}
	.st17{fill:url(#x);}
	.st18{fill:url(#w);}
	.st19{fill:url(#v);}
	.st20{fill:url(#u);}
	.st21{fill:url(#t);}
	.st22{fill:url(#s);}
	.st23{fill:url(#q);}
	.st24{fill:url(#p);}
	.st25{fill:url(#o);}
	.st26{fill:url(#n);}
	.st27{fill:url(#m);}
	.st28{fill:url(#l);}
	.st29{fill:url(#k);}
	.st30{fill:url(#j);}
	.st31{fill:url(#i);}
</style>
<title>20. Moving Forward</title>
<path class="st0" d="m204.6 118.1c-34.6 11.9-72.2 31.4-81.1 66.9-5.1 20.3 0.4 42.5-6.7 62.2-10.1 27.9-42.5 42.6-53.7 70-4.8 11.6-5.3 24.5-4.8 37 0.8 23.5 5.5 48.2 21.1 65.9 23.7 26.9 64.2 29 100 29.2 186.7 0.8 373.3-0.1 560-2.6 7.2-0.1 15.1-0.4 20.5-5.2 3.9-3.4 5.8-8.5 7.2-13.5 7.7-27.9 2.7-59.6 17.3-84.6 7.3-12.5 18.8-22 26.3-34.4 16.9-27.6 10.2-65-8.8-91.1s-48.2-43-77.7-56.4-60.4-23.9-87.8-41.2c-52.8-33.6-90.3-91-149.1-112.3-51-18.5-108.2-3.5-151 27.4-18.2 13.2-32.2 30.5-49.6 44.4-24.4 19.3-53.3 28.4-82.1 38.3z"/>
<path class="st1" d="m18 458.7c-6.8 0.4-14.8 1.5-18 7.6 9 8.9 22.5 11 35.1 12.5 69.1 8.1 138.8 9.4 208.3 10.6l208.8 3.7c43.6 0.8 87.4 1.5 130.4-5.7 27.2-4.6 53.9-12.4 81.4-15.4 26.2-2.9 52.8-1.5 79-4.6 6.5-0.8 13.3-2 18.5-6.1s7.7-12.1 3.9-17.4c-3-4.2-8.6-5.5-13.6-6.3-19-3.1-38.2-4.7-57.4-5.9-178.3-11-355.6 19-533.6 21.8-47.9 0.6-95 2.4-142.8 5.2z"/>
<linearGradient id="r" x1="-70.69" x2="-30.04" y1="223.41" y2="223.41" gradientTransform="matrix(1 .08 -.08 1 263.71 -34.35)" gradientUnits="userSpaceOnUse">
	<stop stop-color="#ECC4D7" offset="0"/>
	<stop stop-color="#EFD4D1" offset=".42"/>
	<stop stop-color="#F2EAC9" offset="1"/>
</linearGradient>
<path class="st2" d="m167.6 210.2s4.6-33.8 7.3-39.4 3.4-29.1 33.9-13.2c0 0 4.5 4.5 2.2 10.1s-2.1 9.6-0.5 11.6-2.7 4.1-2.7 4.1-1-0.3-2.4 6.1-13.9 6.1-13.9 6.1-6.7 3.4-5.1 13.4-15.6 9-18.8 1.2z"/>
<path class="st3" d="m165.7 173.7c-0.4-5.6 1-11.6 5-15.6 0.7-0.6 1.4-1.3 2-2 0.5-0.9 1-1.9 1.3-2.9 2.2-4.9 6.4-8.6 11.6-10.1 5.2-1.4 10.7-0.8 15.5 1.5 2.5 1.2 4.7 2.8 7.3 3.8s5.6 1.3 7.9-0.2c0.4 1.4 0.2 2.9-0.8 4l3.6-1.2c0.2 4.3-1.9 8.4-5.5 10.7l1.4-0.2c-1.1 1.9-3.8 1.9-5.9 1.4-2.7-0.5-5.3-1.3-7.8-2.3-3.5-1.4-7.6-3.3-10.8-1.3s-3.2 6.7-4.2 10.4c-0.7 2.6-2.1 4.9-4 6.8-0.2-1.3-0.7-2.5-1.5-3.6-0.7-1.1-2.1-1.7-3.4-1.5-2.2 0.5-2.7 3.5-2.4 5.7 0.3 2 1 4.3 2.9 4.9-2.1 2.7-3.7 5.7-4.9 8.8l-1.1-0.4c-0.2 0.6-0.9 0.8-1.5 0.6-1-0.4-2.1-6.3-2.6-7.5-1-2.9-1.7-6.3-2.1-9.8z"/>
<circle class="st4" cx="352.6" cy="449.6" r="10.7"/>
<linearGradient id="h" x1="353.28" x2="352.44" y1="90.79" y2="33.35" gradientTransform="matrix(1 0 0 -1 -.03 494.01)" gradientUnits="userSpaceOnUse">
	<stop offset="0"/>
	<stop stop-opacity="0" offset=".99"/>
</linearGradient>
<path class="st5" d="m358 449.6c0 3-2.4 5.4-5.4 5.4s-5.4-2.4-5.4-5.4 2.4-5.4 5.4-5.4 5.4 2.4 5.4 5.4z"/>
<circle class="st4" cx="419.3" cy="449.6" r="10.7"/>
<linearGradient id="g" x1="419.93" x2="419.08" y1="89.8" y2="32.36" gradientTransform="matrix(1 0 0 -1 0 494)" gradientUnits="userSpaceOnUse">
	<stop offset="0"/>
	<stop stop-opacity="0" offset=".99"/>
</linearGradient>
<circle class="st6" cx="419.3" cy="449.6" r="5.4"/>
<circle class="st4" cx="653.5" cy="449.6" r="10.7"/>
<linearGradient id="f" x1="654.09" x2="653.24" y1="86.36" y2="28.92" gradientTransform="matrix(1 0 0 -1 0 494)" gradientUnits="userSpaceOnUse">
	<stop offset="0"/>
	<stop stop-opacity="0" offset=".99"/>
</linearGradient>
<circle class="st7" cx="653.5" cy="449.6" r="5.4"/>
<circle class="st4" cx="720.1" cy="449.6" r="10.7"/>
<linearGradient id="e" x1="720.72" x2="719.88" y1="85.38" y2="27.94" gradientTransform="matrix(1 0 0 -1 0 494)" gradientUnits="userSpaceOnUse">
	<stop offset="0"/>
	<stop stop-opacity="0" offset=".99"/>
</linearGradient>
<circle class="st8" cx="720.1" cy="449.6" r="5.4"/>
<linearGradient id="d" x1="-631.1" x2="-605.46" y1="1609.3" y2="1609.3" gradientTransform="matrix(.93 .36 -.36 .93 1462.7 -1063.6)" gradientUnits="userSpaceOnUse">
	<stop stop-color="#ECC4D7" offset="0"/>
	<stop stop-color="#EFD4D1" offset=".42"/>
	<stop stop-color="#F2EAC9" offset="1"/>
</linearGradient>
<path class="st9" d="m291.5 206.8c1.9-1.5 4.5-1.9 6.6-3.1 1-0.6 1.8-1.4 2.8-2 2.4-1.7 5.2-2.7 8.1-3 0.5 0.9-2.2 3.1-3.3 3.7 4-0.4 6.6-0.8 10.6-1 1.6 0 1.1 1.3 0.5 1.6-1.1 0.5-4.5 1.5-5.7 2 2.7-1 5.5-1.6 8.3-1.9 1.2 0.2 0.7 1.5-0.1 1.8-2.9 1.2-5.9 2.2-9 3 2.1-0.4 4.9-1.2 7-1.2 0.4 0 0.7 0.3 0.7 0.7 0 0.2-0.1 0.5-0.3 0.6-0.7 0.4-1.4 0.8-2.1 1l-5.4 2c1.7-0.3 3.5-0.4 5.2-0.4 1.1 0.1 1.4 1.2-1.3 2.1-2.4 0.7-4.7 1.6-6.9 2.7-4.9 2.6-10.9 1.7-16.4 0.8 0.4-3.3 0.4-6.3 0.7-9.4z"/>
<path class="st4" d="m43.2 435.8-3.5 3.1c-0.9 0.7-1 2-0.3 2.9l0.1 0.1 6.2 6.4c1 1 2.6 1 3.6 0.1l3.4-3-9.5-9.6z"/>
<path class="st4" d="m212.7 432.5-0.8 5.4c-0.2 1.5 0.9 2.8 2.4 3h0.1l11.6 1.6c1.7 0.3 3.3-0.8 3.7-2.5l0.8-5.3-17.8-2.2z"/>
<linearGradient id="c" x1="38.97" x2="52.84" y1="51.566" y2="51.566" gradientTransform="matrix(1 0 0 -1 -.03 494.01)" gradientUnits="userSpaceOnUse">
	<stop offset="0"/>
	<stop stop-opacity="0" offset=".99"/>
</linearGradient>
<path class="st10" d="m43.2 435.8-3.5 3.1c-0.9 0.7-1 2-0.3 2.9l0.1 0.1 6.2 6.4c1 1 2.6 1 3.6 0.1l3.4-3-9.5-9.6z"/>
<linearGradient id="b" x1="211.9" x2="230.53" y1="56.462" y2="56.462" gradientTransform="matrix(1 0 0 -1 -.03 494.01)" gradientUnits="userSpaceOnUse">
	<stop offset="0"/>
	<stop stop-opacity="0" offset=".99"/>
</linearGradient>
<path class="st11" d="m212.7 432.5-0.8 5.4c-0.2 1.5 0.9 2.8 2.4 3h0.1l11.6 1.6c1.7 0.3 3.3-0.8 3.7-2.5l0.8-5.3-17.8-2.2z"/>
<path class="st4" d="m134.2 311.3c-4.5-1-9.1 1.5-9.9 5.6-3.6 16.6-1.6 54.4-19 64.9s-51.7 38.2-60.6 49.2c-2.3 2.8-2 6.9 0.7 9.3l3.3 3.1c2.6 2.3 6.2 2.9 9.4 1.5 16.8-7.4 68-30.7 76.8-43.4 10.6-15.3 49.1-74.1 49.1-76.5 0-1.9-33.6-9.9-49.8-13.7z"/>
<linearGradient id="a" x1="103.29" x2="164.95" y1="121.15" y2="67.938" gradientTransform="matrix(1 0 0 -1 -.03 494.01)" gradientUnits="userSpaceOnUse">
	<stop offset="0"/>
	<stop stop-opacity="0" offset=".99"/>
</linearGradient>
<path class="st12" d="m134.2 311.3c-4.5-1-9.1 1.5-9.9 5.6-3.6 16.6-1.6 54.4-19 64.9s-51.7 38.2-60.6 49.2c-2.3 2.8-2 6.9 0.7 9.3l3.3 3.1c2.6 2.3 6.2 2.9 9.4 1.5 16.8-7.4 68-30.7 76.8-43.4 10.6-15.3 49.1-74.1 49.1-76.5 0-1.9-33.6-9.9-49.8-13.7z"/>
<path class="st4" d="m205.5 233.4s36.1 1.5 59.4-6 27-10 27-10l-1.2-11.1s-41.4 8.2-55.2 5.4-31.7 5.6-31.7 5.6l1.7 16.1z"/>
<linearGradient id="ab" x1="137" x2="288.7" y1="-85.582" y2="-77.482" gradientTransform="translate(-3.61 299.33)" gradientUnits="userSpaceOnUse">
	<stop offset="0"/>
	<stop stop-opacity="0" offset=".99"/>
</linearGradient>
<path class="st13" d="m205.5 233.4s36.1 1.5 59.4-6 27-10 27-10l-1.2-11.1s-41.4 8.2-55.2 5.4-31.7 5.6-31.7 5.6l1.7 16.1z"/>
<path class="st4" d="m782.4 59.1v253.5c0 13.9-11.3 25.1-25.1 25.1h-436.7c-13.9 0-25.1-11.2-25.1-25.1l0.6-266c0-13.9 11.3-25.1 25.1-25.1l-0.6 12.5h436.6c13.9 0 25.2 11.2 25.2 25.1z"/>
<linearGradient id="aa" x1="188.96" x2="337.62" y1="334.66" y2="326.21" gradientTransform="matrix(1 0 0 -1 -.03 494.01)" gradientUnits="userSpaceOnUse">
	<stop offset=".01"/>
	<stop stop-opacity="0" offset=".99"/>
</linearGradient>
<path class="st14" d="m783 58.1v253.5c0 13.9-11.3 25.1-25.1 25.1h-436.6c-13.9 0-25.1-11.2-25.1-25.1v-265.5c0-13.9 12.1-24.5 26-24.5h432c26.6 1 28.8 22.6 28.8 36.5z"/>
<path class="st4" d="m322.1 21.5h429.7c5.5 0 10 4.5 10 10v31.1c0 5.5-4.5 10-10 10h-429.7c-5.5 0-10-4.5-10-10v-31.1c0-5.5 4.5-10 10-10z"/>
<path class="st4" d="m782.4 59.6v253.5c0 13.9-11.3 25.1-25.1 25.1l-419.9-0.5c-13.9 0-25.1-11.2-25.1-25.1v-253c0-13.9 11.3-25.1 25.1-25.1l414.6-12.9c30.4-0.1 30.4 24.1 30.4 38z"/>
<path class="st4" d="m156.2 211s8.1-10.6 31.9-10.5 45.1 0.4 51.1-1.6 41.5-14.9 41.5-14.9l5.1 13.5s-32.9 19.8-48.5 23c-18.9 3.9-32.9 9-38 26.1s-7.3 51.5-14.4 58-54 16.7-59.2 5.5 6.7-60.1 30.5-99.1z"/>
<linearGradient id="z" x1="-26.43" x2="214.68" y1="-38.832" y2="-49.792" gradientTransform="translate(-3.61 299.33)" gradientUnits="userSpaceOnUse">
	<stop offset="0"/>
	<stop stop-opacity="0" offset=".99"/>
</linearGradient>
<path class="st15" d="m285.9 197.5s-4 2.4-9.8 5.6c-11 6.1-28.5 15.3-38.7 17.4-18.9 3.9-32.9 9-38 26.1-4.7 15.6-6.9 45.8-12.7 55.7-0.5 0.8-1 1.6-1.7 2.2-7.1 6.5-54 16.7-59.2 5.5s6.6-59.9 30.4-99c0 0 8.1-10.6 31.9-10.5s45.1 0.4 51.1-1.6 41.5-14.8 41.5-14.8l5.2 13.4z"/>
<path class="st4" d="m125.8 309.4s-6.9 24.1 9.8 32.3 79.1 20.2 79.1 20.2-10.9 44.4-7.3 62l1.4 6.8c0.6 2.5 2.9 4.3 5.5 4.4l13.5 0.7c2.4 0.2 4.6-1.1 5.8-3.2 7.4-15 22-74.4 9.2-90.9-14.6-18.8-57.7-37.2-57.7-37.2l-59.3 4.9z"/>
<linearGradient id="y" x1="190.43" x2="251.25" y1="131.67" y2="182.35" gradientTransform="matrix(1 0 0 -1 -.03 494.01)" gradientUnits="userSpaceOnUse">
	<stop offset="0"/>
	<stop stop-opacity="0" offset=".99"/>
</linearGradient>
<path class="st16" d="m233.7 432.2-0.2 0.4c-0.9 1.7-2.5 2.8-4.4 3.1-0.4 0.1-0.9 0.1-1.3 0.1l-2.5-0.1-11-0.6c-2.6 0-4.8-1.8-5.5-4.4l-1.3-6.8c-3.6-17.6 7.3-62 7.3-62s-62.4-12-79.1-20.2-9.8-32.3-9.8-32.3l21.4-1.8 37.7-3.1s43.1 18.3 57.7 37.2c12.7 16.3-1.6 74.8-9 90.5z"/>
<linearGradient id="x" x1="153.75" x2="238.78" y1="103.93" y2="150.11" gradientTransform="matrix(1 0 0 -1 -.03 494.01)" gradientUnits="userSpaceOnUse">
	<stop offset="0"/>
	<stop stop-opacity="0" offset=".99"/>
</linearGradient>
<path class="st17" d="m233.7 431.8-4.6 3.5-1 0.8c-1 0-2-0.3-2.8-0.8-1.3-0.7-2.3-2-2.6-3.5l-1.4-6.8c-1.6-7.6 8.5-38 10.3-50 2.5-16.7-8.3-32.5-24.8-36.2-18.3-4.1-39.6-9.5-48.4-13.8-7.8-3.8-10.4-11.1-11.1-17.8l37.8-3.1s43.1 18.3 57.7 37.2c12.6 16.4-1.7 74.8-9.1 90.5z"/>
<linearGradient id="w" x1="232.15" x2="232.15" y1="117.89" y2="117.89" gradientTransform="translate(-3.61 299.33)" gradientUnits="userSpaceOnUse">
	<stop stop-color="#ECC4D7" offset="0"/>
	<stop stop-color="#EFD4D1" offset=".42"/>
	<stop stop-color="#F2EAC9" offset="1"/>
</linearGradient>
<path class="st18" d="m228.5 417.2"/>
<path class="st4" d="m214.4 441s-6.9 18.6-5.5 20.2 55.9 0 55.9 0 2.6-5-9.7-8.8-26.6-4.8-26.6-4.8l-2.6-5-11.5-1.6z"/>
<path class="st4" d="m39.6 442-10.3 3.7-2.5 3.5 20.5 19.2h23.7s-3.1-9.3-12.3-9.7-13-10.3-13-10.3l-6.1-6.4z"/>
<linearGradient id="v" x1="255.61" x2="186.16" y1="38.517" y2="45.277" gradientTransform="matrix(1 0 0 -1 -.03 494.01)" gradientUnits="userSpaceOnUse">
	<stop offset="0"/>
	<stop stop-opacity="0" offset=".99"/>
</linearGradient>
<path class="st19" d="m214.4 441s-6.9 18.6-5.5 20.2 55.9 0 55.9 0 2.6-5-9.7-8.8-26.6-4.8-26.6-4.8l-2.6-5-11.5-1.6z"/>
<linearGradient id="u" x1="55.021" x2="20.671" y1="34.684" y2="47.074" gradientTransform="matrix(1 0 0 -1 -.03 494.01)" gradientUnits="userSpaceOnUse">
	<stop offset="0"/>
	<stop stop-opacity="0" offset=".99"/>
</linearGradient>
<path class="st20" d="m39.6 442-10.3 3.7-2.5 3.5 20.5 19.2h23.7s-3.1-9.3-12.3-9.7-13-10.3-13-10.3l-6.1-6.4z"/>
<linearGradient id="t" x1="285" x2="310.61" y1="-116.74" y2="-116.74" gradientTransform="translate(-3.61 299.33)" gradientUnits="userSpaceOnUse">
	<stop stop-color="#ECC4D7" offset="0"/>
	<stop stop-color="#EFD4D1" offset=".42"/>
	<stop stop-color="#F2EAC9" offset="1"/>
</linearGradient>
<path class="st21" d="m281.4 185.3c1.2-2.1 3.5-3.4 5-5.3 0.7-0.9 1.2-1.9 1.9-2.9 1.6-2.5 3.8-4.5 6.4-5.8 0.8 0.6-0.9 3.7-1.7 4.7 3.6-1.8 5.8-3.1 9.5-4.8 1.5-0.5 1.5 0.8 1 1.3-0.9 0.9-3.7 3-4.6 3.9 2.2-1.9 4.5-3.5 7.1-4.8 1.2-0.3 1.2 1.1 0.5 1.7-2.3 2.2-4.7 4.2-7.3 6.1 1.8-1.1 4.2-2.9 6.1-3.7 0.4-0.1 0.8 0.1 0.9 0.4 0.1 0.2 0 0.4 0 0.6-0.5 0.7-1 1.2-1.6 1.7l-4.3 3.8c1.5-0.9 3.1-1.6 4.7-2.2 1-0.3 1.7 0.6-0.5 2.4-1.9 1.5-3.8 3.2-5.4 5-3.7 4.2-9.5 5.6-14.9 6.7-0.8-3-1.9-5.8-2.8-8.8z"/>
<path class="st4" d="m388.3 441.5c-7.8 0-14-6.3-14-12v-71.9c0-9.8 6.3-16.1 14-16.1s14 6.3 14 14v71.9c0 7.8-6.2 14.1-14 14.1 0.1 0 0.1 0 0 0z"/>
<path class="st4" d="m685.6 441.5c-7.7 0-14-6.3-14-14v-71.9c0-7.7 6.3-14 14-14s14 6.3 14 14v71.9c0 7.7-6.2 14-14 14z"/>
<linearGradient id="s" x1="392.79" x2="391.77" y1=".59" y2="107.48" gradientTransform="translate(-3.61 299.33)" gradientUnits="userSpaceOnUse">
	<stop offset="0"/>
	<stop stop-opacity="0" offset=".99"/>
</linearGradient>
<path class="st22" d="m388.3 441.5c-7.8 0-14-6.3-14-12v-71.9c0-9.8 6.3-16.1 14-16.1s14 6.3 14 14v71.9c0 7.8-6.2 14.1-14 14.1 0.1 0 0.1 0 0 0z"/>
<linearGradient id="q" x1="690.1" x2="689.08" y1="3.42" y2="110.31" gradientTransform="translate(-3.61 299.33)" gradientUnits="userSpaceOnUse">
	<stop offset="0"/>
	<stop stop-opacity="0" offset=".99"/>
</linearGradient>
<path class="st23" d="m685.6 441.5c-7.7 0-14-6.3-14-14v-71.9c0-7.7 6.3-14 14-14s14 6.3 14 14v71.9c0 7.7-6.2 14-14 14z"/>
<path class="st4" d="m428.7 443.1h-85.4c-1.8 0-3.3-1.5-3.3-3.3s1.5-3.3 3.3-3.3h85.4c1.8 0 3.3 1.5 3.3 3.3s-1.4 3.3-3.3 3.3z"/>
<path class="st4" d="m729.5 443.1h-85.4c-1.8 0-3.3-1.5-3.3-3.3s1.5-3.3 3.3-3.3h85.4c1.8 0 3.3 1.5 3.3 3.3s-1.5 3.3-3.3 3.3z"/>
<linearGradient id="p" x1="683.81" x2="691.85" y1="86.16" y2="152.35" gradientTransform="translate(-3.61 299.33)" gradientUnits="userSpaceOnUse">
	<stop offset="0"/>
	<stop stop-opacity="0" offset=".99"/>
</linearGradient>
<path class="st24" d="m729.5 443.1h-85.4c-1.8 0-3.3-1.5-3.3-3.3s1.5-3.3 3.3-3.3h85.4c1.8 0 3.3 1.5 3.3 3.3s-1.5 3.3-3.3 3.3z"/>
<linearGradient id="o" x1="389.62" x2="389.62" y1="89.29" y2="149.81" gradientTransform="translate(-3.61 299.33)" gradientUnits="userSpaceOnUse">
	<stop offset="0"/>
	<stop stop-opacity="0" offset=".99"/>
</linearGradient>
<path class="st25" d="m428.7 443.1h-85.4c-1.8 0-3.3-1.5-3.3-3.3s1.5-3.3 3.3-3.3h85.4c1.8 0 3.3 1.5 3.3 3.3s-1.4 3.3-3.3 3.3z"/>
<linearGradient id="n" x1="647.69" x2="733.12" y1="143.75" y2="143.75" gradientTransform="translate(-3.61 299.33)" gradientUnits="userSpaceOnUse">
	<stop offset="0"/>
	<stop stop-opacity="0" offset=".99"/>
</linearGradient>
<path class="st26" d="m729.5 443.1h-85.4"/>
<path class="st4" d="m621.2 228.5v-14.8c0-5.2-4.1-9.4-9.3-9.4h-207.6c-7 0-12.8-5.7-12.8-12.8v-19.9c0-7 5.7-12.8 12.8-12.8h208.4c5.2 0 9.4-4.2 9.4-9.4v-16.1c0-5.2 4.2-9.4 9.4-9.3 1.5 0 2.9 0.4 4.2 1 0.2 0.1 0.3 0.2 0.5 0.3l61.9 46.3c4.5 2.5 6.2 8.2 3.7 12.7-0.9 1.6-2.2 2.9-3.8 3.7l-62.7 48.4c-0.2 0.1-0.4 0.3-0.6 0.4-4.7 2.3-10.3 0.3-12.5-4.3-0.7-1.1-1-2.5-1-4z"/>
<path class="st4" d="m320.2 59.8s0.7-20 23.9-21.6h52.4s-30.3 4.8-33.2 21.6 0 245.1 0 245.1 4.3 26.7 45.2 28.1h-71.3s-15.9-4.3-17-14.9 0-258.3 0-258.3z"/>
<path class="st4" d="m621.2 228.5v-14.8c0-5.2-4.1-9.4-9.3-9.4h-207.6c-7 0-12.8-5.7-12.8-12.8v-19.9c0-7 5.7-12.8 12.8-12.8h208.4c5.2 0 9.4-4.2 9.4-9.4v-16.1c0-5.2 4.2-9.4 9.4-9.3 1.5 0 2.9 0.4 4.2 1 0.2 0.1 0.3 0.2 0.5 0.3l61.9 46.3c4.5 2.5 6.2 8.2 3.7 12.7-0.9 1.6-2.2 2.9-3.8 3.7l-62.7 48.4c-0.2 0.1-0.4 0.3-0.6 0.4-4.7 2.3-10.3 0.3-12.5-4.3-0.7-1.1-1-2.5-1-4z"/>
<linearGradient id="m" x1="563.36" x2="527.2" y1="389.81" y2="196.56" gradientTransform="matrix(1 0 0 -1 -.03 494.01)" gradientUnits="userSpaceOnUse">
	<stop offset=".01"/>
	<stop stop-opacity="0" offset=".99"/>
</linearGradient>
<path class="st27" d="m621.2 228.5v-14.8c0-5.2-4.1-9.4-9.3-9.4h-207.6c-7 0-12.8-5.7-12.8-12.8v-19.9c0-7.1 9.9-25.4 17-25.4l-4.2 12.6h208.4c5.2 0 9.4-4.2 9.4-9.4v-16.1c0-5.2 8.6-21.9 13.8-21.8 1.5 0-1.5 12.9-0.2 13.5 0.2 0.1 0.3 0.2 0.5 0.3l73.5 39.3c4.5 2.5-5.4 15.2-7.9 19.7-0.9 1.6-2.2 2.9-3.8 3.8l-62.7 48.4c-0.2 0.1-0.4 0.3-0.6 0.4-4.7 2.3-10.3 0.3-12.5-4.3-0.7-1.2-1-2.6-1-4.1z"/>
<path class="st4" d="m629.1 215.3v-14.8c0-5.2-4.1-9.4-9.3-9.4h-207.6c-7 0-12.8-5.7-12.8-12.8v-19.9c0-7 5.7-12.8 12.8-12.8h208.4c5.2 0 9.4-4.2 9.4-9.4v-16.1c0-5.2 4.2-9.4 9.4-9.3 1.5 0 2.9 0.3 4.2 1 0.2 0.1 0.3 0.2 0.5 0.3l61.9 46.3c4.5 2.5 6.2 8.2 3.7 12.7-0.9 1.6-2.2 2.9-3.8 3.7l-62.7 48.4c-0.2 0.1-0.4 0.3-0.6 0.4-4.7 2.3-10.3 0.3-12.5-4.3-0.7-1.1-1-2.5-1-4z"/>
<linearGradient id="l" x1="556.29" x2="554.04" y1="426.38" y2="241.68" gradientTransform="matrix(1 0 0 -1 -.03 494.01)" gradientUnits="userSpaceOnUse">
	<stop stop-color="#fff" offset="0"/>
	<stop stop-color="#fff" stop-opacity=".95" offset=".09"/>
	<stop stop-color="#fff" stop-opacity=".83" offset=".25"/>
	<stop stop-color="#fff" stop-opacity=".63" offset=".46"/>
	<stop stop-color="#fff" stop-opacity=".35" offset=".71"/>
	<stop stop-color="#fff" stop-opacity="0" offset=".99"/>
	<stop stop-color="#fff" stop-opacity="0" offset="1"/>
</linearGradient>
<path class="st28" d="m629.1 215.3v-14.8c0-5.2-4.1-9.4-9.3-9.4h-207.6c-7 0-12.8-5.7-12.8-12.8v-19.9c0-7 5.7-12.8 12.8-12.8h208.4c5.2 0 9.4-4.2 9.4-9.4v-16.1c0-5.2 4.2-9.4 9.4-9.3 1.5 0 2.9 0.3 4.2 1 0.2 0.1 0.3 0.2 0.5 0.3l61.9 46.3c4.5 2.5 6.2 8.2 3.7 12.7-0.9 1.6-2.2 2.9-3.8 3.7l-62.7 48.4c-0.2 0.1-0.4 0.3-0.6 0.4-4.7 2.3-10.3 0.3-12.5-4.3-0.7-1.1-1-2.5-1-4z"/>
<linearGradient id="k" x1="673.83" x2="194.69" y1="-229.08" y2="-59.376" gradientTransform="translate(-3.61 299.33)" gradientUnits="userSpaceOnUse">
	<stop stop-color="#fff" offset="0"/>
	<stop stop-color="#fff" stop-opacity=".95" offset=".09"/>
	<stop stop-color="#fff" stop-opacity=".83" offset=".25"/>
	<stop stop-color="#fff" stop-opacity=".63" offset=".46"/>
	<stop stop-color="#fff" stop-opacity=".35" offset=".71"/>
	<stop stop-color="#fff" stop-opacity="0" offset=".99"/>
	<stop stop-color="#fff" stop-opacity="0" offset="1"/>
</linearGradient>
<path class="st29" d="m312.7 34.2s-2-10.4 8.5-12.7h67.8s-30.3-4.1-33.2 12.7 0 270.7 0 270.7 7.1 30.8 48 32.1h-69.2s-19.3-1-21.9-18.9c-1.5-10.5 0-283.9 0-283.9z"/>
<path class="st4" d="m785.8 343.4v4.1c0 3.5-4.3 6.4-9.6 6.4h-473.2c-5.3 0-9.6-2.8-9.6-6.4v-4.1-0.6c0.5-3.2 4.6-5.7 9.6-5.7h473.1c5 0 9.1 2.5 9.6 5.7 0 0.2 0.1 0.4 0.1 0.6z"/>
<linearGradient id="j" x1="538.69" x2="539.81" y1="120.19" y2="159.77" gradientTransform="matrix(1 0 0 -1 -.03 494.01)" gradientUnits="userSpaceOnUse">
	<stop offset="0"/>
	<stop stop-opacity="0" offset=".99"/>
</linearGradient>
<path class="st30" d="m785.7 341.4c-0.5 2.4-4.6 4.4-9.6 4.4h-473.1c-5 0-9.1-1.9-9.6-4.4 0.5-2.5 4.6-4.4 9.6-4.4h473.1c5 0.1 9.1 2 9.6 4.4z"/>
<linearGradient id="i" x1="7.0515" x2="224.03" y1="-195.83" y2="-45.342" gradientTransform="translate(-3.61 299.33)" gradientUnits="userSpaceOnUse">
	<stop stop-color="#fff" offset="0"/>
	<stop stop-color="#fff" stop-opacity=".95" offset=".09"/>
	<stop stop-color="#fff" stop-opacity=".83" offset=".25"/>
	<stop stop-color="#fff" stop-opacity=".63" offset=".46"/>
	<stop stop-color="#fff" stop-opacity=".35" offset=".71"/>
	<stop stop-color="#fff" stop-opacity="0" offset=".99"/>
	<stop stop-color="#fff" stop-opacity="0" offset="1"/>
</linearGradient>
<path class="st31" d="m284.2 194.1 1.7 3.4c-11 6.1-38.3 20.9-48.5 23-18.9 3.9-32.9 9-38 26.1-4.7 15.6-6.9 45.8-12.7 55.7l-1.7 1.9-37.8 3.2s13-66.4 23-73.8 32.7-12.7 48.9-17.3 65.1-22.2 65.1-22.2z"/>
</svg>
